<?xml version="1.0" encoding="utf-8"?>
<!-- Generator: Adobe Illustrator 28.1.0, SVG Export Plug-In . SVG Version: 6.00 Build 0)  -->
<svg version="1.1" id="Layer_1" xmlns="http://www.w3.org/2000/svg" xmlns:xlink="http://www.w3.org/1999/xlink" x="0px" y="0px"
	 viewBox="0 0 78.8 80.9" style="enable-background:new 0 0 78.8 80.9;" xml:space="preserve">
<style type="text/css">
	.st0{fill:#BE2026;}
</style>
<path class="st0" d="M25.3,7.2v13.7h-2.5V7.2C22.8,6.5,23.4,6,24,6S25.3,6.5,25.3,7.2z"/>
<rect x="22.8" y="28.4" class="st0" width="2.5" height="13.5"/>
<path class="st0" d="M22.8,49.4h2.5v24c0,0.7-0.6,1.2-1.2,1.2s-1.2-0.6-1.2-1.2L22.8,49.4L22.8,49.4z"/>
<path class="st0" d="M36.1,7.2v24.5h-2.5V7.2c0-0.7,0.6-1.2,1.2-1.2S36.1,6.5,36.1,7.2z"/>
<rect x="33.6" y="39.1" class="st0" width="2.5" height="13.5"/>
<path class="st0" d="M33.6,60.2h2.5v13.3c0,0.7-0.6,1.2-1.2,1.2s-1.2-0.6-1.2-1.2L33.6,60.2L33.6,60.2z"/>
<path class="st0" d="M46.8,7.2v13.7h-2.5V7.2c0-0.7,0.6-1.2,1.2-1.2S46.8,6.5,46.8,7.2z"/>
<rect x="44.3" y="28.4" class="st0" width="2.5" height="13.5"/>
<path class="st0" d="M44.3,49.4h2.5v24c0,0.7-0.6,1.2-1.2,1.2s-1.2-0.6-1.2-1.2L44.3,49.4L44.3,49.4z"/>
<path class="st0" d="M57.1,7.2v24.5h-2.5V7.2c0-0.7,0.6-1.2,1.2-1.2S57.1,6.5,57.1,7.2z"/>
<rect x="54.6" y="39.1" class="st0" width="2.5" height="13.5"/>
<path class="st0" d="M54.6,60.2h2.5v13.3c0,0.7-0.6,1.2-1.2,1.2s-1.2-0.6-1.2-1.2V60.2H54.6z"/>
<path class="st0" d="M6.1,55.2h14.2v2.5H6.1c-0.7,0-1.2-0.6-1.2-1.2S5.4,55.2,6.1,55.2z"/>
<rect x="27.8" y="55.2" class="st0" width="14.1" height="2.5"/>
<path class="st0" d="M73.6,56.4c0,0.7-0.6,1.2-1.2,1.2h-23v-2.4h23C73.1,55.2,73.6,55.8,73.6,56.4z"/>
<path class="st0" d="M6.1,44.4h25v2.5h-25c-0.7,0-1.2-0.6-1.2-1.2S5.4,44.4,6.1,44.4z"/>
<rect x="38.6" y="44.4" class="st0" width="13.5" height="2.5"/>
<path class="st0" d="M73.6,45.7c0,0.7-0.6,1.2-1.2,1.2H59.6v-2.5h12.8C73.1,44.4,73.6,45,73.6,45.7z"/>
<path class="st0" d="M6.1,34.1h14.2v2.5H6.1c-0.7,0-1.2-0.6-1.2-1.2S5.4,34.1,6.1,34.1z"/>
<rect x="27.8" y="34.1" class="st0" width="14.1" height="2.5"/>
<path class="st0" d="M73.6,35.4c0,0.7-0.6,1.2-1.2,1.2h-23v-2.5h23C73.1,34.1,73.6,34.7,73.6,35.4z"/>
<path class="st0" d="M6.1,23.4h25v2.5h-25c-0.7,0-1.2-0.6-1.2-1.2S5.4,23.4,6.1,23.4z"/>
<rect x="38.6" y="23.4" class="st0" width="13.5" height="2.5"/>
<path class="st0" d="M73.6,24.6c0,0.7-0.6,1.2-1.2,1.2H59.6v-2.5h12.8C73.1,23.4,73.6,23.9,73.6,24.6z"/>
</svg>
